# xmcd CD database file
#
# Track frame offsets:
#	150
#	19660
#	37375
#	52055
#	67727
#	83137
#	101660
#	112750
#	135800
#	147665
#	171682
#	187827
#	206507
#	229632
#	242925
#	263067
#	278852
#	291707
#
# Disc length: 4113 seconds
#
# Revision: 6
# Processed by: cddbd v1.5.2PL0 Copyright (c) Steve Scherf et al.
# Submitted via: CDex 1.82
#
DISCID=0e100f12
DTITLE=Various Artist - Line Dance Fever 1
DYEAR=1996
DGENRE=Country
TTITLE0=Jeff Moore - Fever (Dance Mix)
TTITLE1=Tim McGraw - I Like It, I Love It (Club Mix)
TTITLE2=Smokin' Armadillos - Thump Factor (Dance Mix)
TTITLE3=JoDee Messina - Heads Carolina, Tails California
TTITLE4=Desert Rose Band - One Step Forward
TTITLE5=Kimber Clayton - Good Girls Love Bad Boys (Dance Mix)
TTITLE6=Jeff Carson - Yeah Buddy
TTITLE7=Ronnie McDowell - Funky Cowboy
TTITLE8=Junior Brown - Highway Patrol
TTITLE9=Hank Williams Jr, - Hog Wild (Dance Mix)
TTITLE10=Boy Howdy - Bigger Fish To Fry (Dance Mix)
TTITLE11=Wynonna - Dance! Shout!
TTITLE12=Sawyer Brown - The Boys and Me (Dance Mix)
TTITLE13=Hal Ketchum - Small Town Saturday Night
TTITLE14=Delbert McClinton - Everytime I Roll The Dice
TTITLE15=Rick Vincent - Hello She Lied
TTITLE16=Perfect Stranger - Cut Me Off
TTITLE17=Philip Claypool - Swinging On My Baby's Chain
EXTD=YEAR: 1996
EXTT0=
EXTT1=
EXTT2=
EXTT3=
EXTT4=
EXTT5=
EXTT6=
EXTT7=
EXTT8=
EXTT9=
EXTT10=
EXTT11=
EXTT12=
EXTT13=
EXTT14=
EXTT15=
EXTT16=
EXTT17=
PLAYORDER=
